<svg xmlns="http://www.w3.org/2000/svg" xmlns:xlink="http://www.w3.org/1999/xlink" width="2972" height="2977" viewBox="0 0 2972 2977">
<defs>
<clipPath id="clip-0">
<path clip-rule="nonzero" d="M 0 1216 L 1877 1216 L 1877 2977 L 0 2977 Z M 0 1216 "/>
</clipPath>
<clipPath id="clip-1">
<path clip-rule="nonzero" d="M 1876.558594 2976.109375 L 0.128906 2975.863281 C 1.8125 2968.230469 1.992188 2960.402344 3.070312 2952.65625 L 31.667969 2651.085938 L 81.484375 2203.011719 C 98.75 2068.773438 115.359375 1907.300781 166.042969 1780.78125 C 188.5 1724.730469 208.414062 1718.789062 261.441406 1691.050781 C 349.941406 1644.75 441.484375 1607.671875 534.140625 1570.699219 L 867.835938 1442.609375 C 929.207031 1418.949219 946.703125 1407.71875 994.539062 1360.921875 L 1078.890625 1272.070312 C 1094.699219 1253.730469 1109.488281 1233.871094 1126.359375 1216.621094 C 1121.640625 1241.648438 1112.660156 1263.488281 1103.429688 1287.070312 C 1063.628906 1388.691406 1073.988281 1537.429688 1084.390625 1642.890625 L 1116.769531 1901.089844 L 1194.480469 2367.636719 L 1270.601562 2737.511719 C 1273.710938 2756.121094 1272.78125 2778.542969 1280.378906 2795.96875 C 1271.539062 2814.398438 1294.078125 2947.972656 1306.828125 2975.5 L 1666.589844 2976.140625 Z M 1876.558594 2976.109375 "/>
</clipPath>
<clipPath id="clip-2">
<path clip-rule="nonzero" d="M 1876.558594 2976.109375 L 0.128906 2975.863281 C 1.8125 2968.230469 1.992188 2960.402344 3.070312 2952.65625 L 31.667969 2651.085938 L 81.484375 2203.011719 C 98.75 2068.773438 115.359375 1907.300781 166.042969 1780.78125 C 188.5 1724.730469 208.414062 1718.789062 261.441406 1691.050781 C 349.941406 1644.75 441.484375 1607.671875 534.140625 1570.699219 L 867.835938 1442.609375 C 929.207031 1418.949219 946.703125 1407.71875 994.539062 1360.921875 L 1078.890625 1272.070312 C 1094.699219 1253.730469 1109.488281 1233.871094 1126.359375 1216.621094 C 1121.640625 1241.648438 1112.660156 1263.488281 1103.429688 1287.070312 C 1063.628906 1388.691406 1073.988281 1537.429688 1084.390625 1642.890625 L 1116.769531 1901.089844 L 1194.480469 2367.636719 L 1270.601562 2737.511719 C 1273.710938 2756.121094 1272.78125 2778.542969 1280.378906 2795.96875 C 1271.539062 2814.398438 1294.078125 2947.972656 1306.828125 2975.5 L 1666.589844 2976.140625 Z M 1876.558594 2976.109375 "/>
</clipPath>
<linearGradient id="linear-pattern-0" gradientUnits="userSpaceOnUse" x1="-14.022085" y1="391.411707" x2="341.022443" y2="342.201527" gradientTransform="matrix(5.85938, 0, 0, 5.85938, -13.9993, -12)">
<stop offset="0" stop-color="rgb(5.097961%, 26.274109%, 42.352295%)" stop-opacity="1"/>
<stop offset="0.0078125" stop-color="rgb(5.160522%, 26.367188%, 42.442322%)" stop-opacity="1"/>
<stop offset="0.015625" stop-color="rgb(5.307007%, 26.585388%, 42.651367%)" stop-opacity="1"/>
<stop offset="0.0234375" stop-color="rgb(5.474854%, 26.834106%, 42.89093%)" stop-opacity="1"/>
<stop offset="0.03125" stop-color="rgb(5.6427%, 27.082825%, 43.130493%)" stop-opacity="1"/>
<stop offset="0.0390625" stop-color="rgb(5.810547%, 27.331543%, 43.370056%)" stop-opacity="1"/>
<stop offset="0.046875" stop-color="rgb(5.976868%, 27.580261%, 43.609619%)" stop-opacity="1"/>
<stop offset="0.0546875" stop-color="rgb(6.144714%, 27.828979%, 43.847656%)" stop-opacity="1"/>
<stop offset="0.0625" stop-color="rgb(6.312561%, 28.079224%, 44.087219%)" stop-opacity="1"/>
<stop offset="0.0703125" stop-color="rgb(6.480408%, 28.327942%, 44.326782%)" stop-opacity="1"/>
<stop offset="0.078125" stop-color="rgb(6.646729%, 28.57666%, 44.566345%)" stop-opacity="1"/>
<stop offset="0.0859375" stop-color="rgb(6.814575%, 28.825378%, 44.805908%)" stop-opacity="1"/>
<stop offset="0.09375" stop-color="rgb(6.982422%, 29.074097%, 45.043945%)" stop-opacity="1"/>
<stop offset="0.101562" stop-color="rgb(7.150269%, 29.322815%, 45.283508%)" stop-opacity="1"/>
<stop offset="0.109375" stop-color="rgb(7.316589%, 29.571533%, 45.523071%)" stop-opacity="1"/>
<stop offset="0.115019" stop-color="rgb(7.484436%, 29.820251%, 45.762634%)" stop-opacity="1"/>
<stop offset="0.117187" stop-color="rgb(7.568359%, 29.945374%, 45.883179%)" stop-opacity="1"/>
<stop offset="0.125" stop-color="rgb(7.652283%, 30.06897%, 46.002197%)" stop-opacity="1"/>
<stop offset="0.132812" stop-color="rgb(7.820129%, 30.317688%, 46.240234%)" stop-opacity="1"/>
<stop offset="0.140625" stop-color="rgb(7.98645%, 30.566406%, 46.479797%)" stop-opacity="1"/>
<stop offset="0.148438" stop-color="rgb(8.154297%, 30.815125%, 46.71936%)" stop-opacity="1"/>
<stop offset="0.15625" stop-color="rgb(8.322144%, 31.063843%, 46.958923%)" stop-opacity="1"/>
<stop offset="0.164062" stop-color="rgb(8.48999%, 31.312561%, 47.198486%)" stop-opacity="1"/>
<stop offset="0.171875" stop-color="rgb(8.656311%, 31.561279%, 47.436523%)" stop-opacity="1"/>
<stop offset="0.179687" stop-color="rgb(8.824158%, 31.809998%, 47.676086%)" stop-opacity="1"/>
<stop offset="0.1875" stop-color="rgb(8.992004%, 32.060242%, 47.915649%)" stop-opacity="1"/>
<stop offset="0.195312" stop-color="rgb(9.159851%, 32.30896%, 48.155212%)" stop-opacity="1"/>
<stop offset="0.203125" stop-color="rgb(9.326172%, 32.557678%, 48.39325%)" stop-opacity="1"/>
<stop offset="0.210937" stop-color="rgb(9.494019%, 32.806396%, 48.632812%)" stop-opacity="1"/>
<stop offset="0.21875" stop-color="rgb(9.661865%, 33.055115%, 48.872375%)" stop-opacity="1"/>
<stop offset="0.226562" stop-color="rgb(9.829712%, 33.303833%, 49.111938%)" stop-opacity="1"/>
<stop offset="0.234375" stop-color="rgb(9.996033%, 33.552551%, 49.351501%)" stop-opacity="1"/>
<stop offset="0.242187" stop-color="rgb(10.163879%, 33.80127%, 49.589539%)" stop-opacity="1"/>
<stop offset="0.25" stop-color="rgb(10.331726%, 34.049988%, 49.829102%)" stop-opacity="1"/>
<stop offset="0.257812" stop-color="rgb(10.499573%, 34.298706%, 50.068665%)" stop-opacity="1"/>
<stop offset="0.265625" stop-color="rgb(10.665894%, 34.547424%, 50.308228%)" stop-opacity="1"/>
<stop offset="0.273437" stop-color="rgb(10.83374%, 34.796143%, 50.547791%)" stop-opacity="1"/>
<stop offset="0.28125" stop-color="rgb(11.001587%, 35.044861%, 50.785828%)" stop-opacity="1"/>
<stop offset="0.289062" stop-color="rgb(11.169434%, 35.293579%, 51.025391%)" stop-opacity="1"/>
<stop offset="0.296875" stop-color="rgb(11.335754%, 35.542297%, 51.264954%)" stop-opacity="1"/>
<stop offset="0.304687" stop-color="rgb(11.503601%, 35.791016%, 51.504517%)" stop-opacity="1"/>
<stop offset="0.3125" stop-color="rgb(11.671448%, 36.04126%, 51.74408%)" stop-opacity="1"/>
<stop offset="0.320312" stop-color="rgb(11.839294%, 36.289978%, 51.982117%)" stop-opacity="1"/>
<stop offset="0.328125" stop-color="rgb(12.005615%, 36.538696%, 52.22168%)" stop-opacity="1"/>
<stop offset="0.335938" stop-color="rgb(12.173462%, 36.787415%, 52.461243%)" stop-opacity="1"/>
<stop offset="0.34375" stop-color="rgb(12.341309%, 37.036133%, 52.700806%)" stop-opacity="1"/>
<stop offset="0.351562" stop-color="rgb(12.509155%, 37.284851%, 52.938843%)" stop-opacity="1"/>
<stop offset="0.359375" stop-color="rgb(12.675476%, 37.533569%, 53.178406%)" stop-opacity="1"/>
<stop offset="0.367187" stop-color="rgb(12.843323%, 37.782288%, 53.417969%)" stop-opacity="1"/>
<stop offset="0.375" stop-color="rgb(13.011169%, 38.031006%, 53.657532%)" stop-opacity="1"/>
<stop offset="0.382813" stop-color="rgb(13.179016%, 38.279724%, 53.897095%)" stop-opacity="1"/>
<stop offset="0.390625" stop-color="rgb(13.345337%, 38.528442%, 54.135132%)" stop-opacity="1"/>
<stop offset="0.398438" stop-color="rgb(13.513184%, 38.777161%, 54.374695%)" stop-opacity="1"/>
<stop offset="0.40625" stop-color="rgb(13.68103%, 39.025879%, 54.614258%)" stop-opacity="1"/>
<stop offset="0.414062" stop-color="rgb(13.848877%, 39.274597%, 54.853821%)" stop-opacity="1"/>
<stop offset="0.421875" stop-color="rgb(14.015198%, 39.523315%, 55.093384%)" stop-opacity="1"/>
<stop offset="0.429688" stop-color="rgb(14.183044%, 39.772034%, 55.331421%)" stop-opacity="1"/>
<stop offset="0.4375" stop-color="rgb(14.350891%, 40.022278%, 55.570984%)" stop-opacity="1"/>
<stop offset="0.445312" stop-color="rgb(14.518738%, 40.270996%, 55.810547%)" stop-opacity="1"/>
<stop offset="0.453125" stop-color="rgb(14.685059%, 40.519714%, 56.05011%)" stop-opacity="1"/>
<stop offset="0.460938" stop-color="rgb(14.852905%, 40.768433%, 56.289673%)" stop-opacity="1"/>
<stop offset="0.46875" stop-color="rgb(15.020752%, 41.017151%, 56.52771%)" stop-opacity="1"/>
<stop offset="0.476562" stop-color="rgb(15.188599%, 41.265869%, 56.767273%)" stop-opacity="1"/>
<stop offset="0.484375" stop-color="rgb(15.354919%, 41.514587%, 57.006836%)" stop-opacity="1"/>
<stop offset="0.492187" stop-color="rgb(15.522766%, 41.763306%, 57.246399%)" stop-opacity="1"/>
<stop offset="0.5" stop-color="rgb(15.690613%, 42.012024%, 57.485962%)" stop-opacity="1"/>
<stop offset="0.507812" stop-color="rgb(15.858459%, 42.260742%, 57.723999%)" stop-opacity="1"/>
<stop offset="0.515625" stop-color="rgb(16.026306%, 42.50946%, 57.963562%)" stop-opacity="1"/>
<stop offset="0.523438" stop-color="rgb(16.192627%, 42.758179%, 58.203125%)" stop-opacity="1"/>
<stop offset="0.53125" stop-color="rgb(16.360474%, 43.006897%, 58.442688%)" stop-opacity="1"/>
<stop offset="0.539062" stop-color="rgb(16.52832%, 43.255615%, 58.680725%)" stop-opacity="1"/>
<stop offset="0.546875" stop-color="rgb(16.696167%, 43.504333%, 58.920288%)" stop-opacity="1"/>
<stop offset="0.554688" stop-color="rgb(16.862488%, 43.753052%, 59.159851%)" stop-opacity="1"/>
<stop offset="0.5625" stop-color="rgb(17.030334%, 44.003296%, 59.399414%)" stop-opacity="1"/>
<stop offset="0.570312" stop-color="rgb(17.198181%, 44.252014%, 59.638977%)" stop-opacity="1"/>
<stop offset="0.578125" stop-color="rgb(17.366028%, 44.500732%, 59.877014%)" stop-opacity="1"/>
<stop offset="0.585937" stop-color="rgb(17.532349%, 44.749451%, 60.116577%)" stop-opacity="1"/>
<stop offset="0.59375" stop-color="rgb(17.700195%, 44.998169%, 60.35614%)" stop-opacity="1"/>
<stop offset="0.601562" stop-color="rgb(17.868042%, 45.246887%, 60.595703%)" stop-opacity="1"/>
<stop offset="0.609375" stop-color="rgb(18.035889%, 45.495605%, 60.835266%)" stop-opacity="1"/>
<stop offset="0.617188" stop-color="rgb(18.202209%, 45.744324%, 61.073303%)" stop-opacity="1"/>
<stop offset="0.625" stop-color="rgb(18.370056%, 45.993042%, 61.312866%)" stop-opacity="1"/>
<stop offset="0.632812" stop-color="rgb(18.537903%, 46.24176%, 61.552429%)" stop-opacity="1"/>
<stop offset="0.640625" stop-color="rgb(18.70575%, 46.490479%, 61.791992%)" stop-opacity="1"/>
<stop offset="0.65625" stop-color="rgb(18.806458%, 46.640015%, 61.935425%)" stop-opacity="1"/>
<stop offset="0.6875" stop-color="rgb(18.823242%, 46.665955%, 61.959839%)" stop-opacity="1"/>
<stop offset="0.75" stop-color="rgb(18.823242%, 46.665955%, 61.959839%)" stop-opacity="1"/>
<stop offset="0.884981" stop-color="rgb(18.823242%, 46.665955%, 61.959839%)" stop-opacity="1"/>
<stop offset="1" stop-color="rgb(18.823242%, 46.665955%, 61.959839%)" stop-opacity="1"/>
</linearGradient>
<clipPath id="clip-3">
<path clip-rule="nonzero" d="M 1278 1214 L 2972 1214 L 2972 2977 L 1278 2977 Z M 1278 1214 "/>
</clipPath>
<clipPath id="clip-4">
<path clip-rule="nonzero" d="M 1847.300781 1240.628906 C 1846.070312 1231.851562 1842.058594 1223.179688 1842.621094 1214.320312 L 1973.679688 1356.75 C 2031.46875 1415.371094 2048.070312 1426.511719 2126.058594 1452.78125 L 2390.210938 1553.121094 C 2508.089844 1600.441406 2627.378906 1643.5 2738.441406 1706.148438 C 2773.410156 1725.878906 2784.679688 1731.210938 2800.878906 1768.308594 C 2841.589844 1861.621094 2857.878906 1967.070312 2873.480469 2066.953125 L 2906.699219 2322.457031 L 2957.929688 2836.457031 C 2961.199219 2882.625 2963.660156 2930.074219 2971.941406 2975.660156 L 1876.558594 2976.128906 L 1666.589844 2975.710938 L 1306.828125 2975.5 C 1294.078125 2947.972656 1271.539062 2814.398438 1280.378906 2795.96875 C 1288.421875 2774.125 1282.460938 2746.476562 1285.710938 2723.382812 L 1315.058594 2438.683594 L 1373.421875 1994.546875 C 1379.011719 1957.148438 1383.671875 1919.210938 1393.570312 1882.671875 C 1345.410156 1835.578125 1326.300781 1716.261719 1310.238281 1704.058594 L 1317.558594 1691.609375 C 1344.589844 1651.519531 1444.609375 1577.601562 1487.519531 1568.648438 L 1490.519531 1568.160156 L 1496.25 1567.089844 C 1505.339844 1564.730469 1511.648438 1559.960938 1519.441406 1555.148438 L 1554.359375 1533.308594 C 1662.96875 1465.550781 1765.550781 1378.601562 1830.828125 1267.351562 C 1834.320312 1265.078125 1841.261719 1253.230469 1842.980469 1249.359375 Z M 1847.300781 1240.628906 L 1842.980469 1249.359375 C 1841.261719 1253.230469 1834.320312 1265.078125 1830.828125 1267.351562 C 1765.550781 1378.601562 1662.96875 1465.550781 1554.359375 1533.308594 L 1519.441406 1555.148438 C 1511.648438 1559.960938 1505.339844 1564.730469 1496.25 1567.089844 L 1490.519531 1568.160156 C 1497.789062 1569.75 1503.378906 1571.890625 1509.910156 1575.390625 L 1512.03125 1576.5 C 1543.828125 1593.539062 1641.570312 1668.648438 1656.910156 1700.558594 C 1660.910156 1708.871094 1672.019531 1718.558594 1678.511719 1725.230469 L 1728.320312 1775.839844 C 1718.378906 1773.109375 1664.089844 1712.96875 1656.308594 1703.980469 L 1632.140625 1771.910156 C 1621.539062 1803.320312 1613.230469 1846.421875 1590.628906 1871.929688 C 1578.941406 1885.121094 1581.46875 1879.769531 1586.171875 1897.359375 C 1589.539062 1909.941406 1591.980469 1922.558594 1594.210938 1935.371094 L 1622.480469 2128.1875 L 1684.191406 2727.988281 C 1685.050781 2747.308594 1684.238281 2766.730469 1687.039062 2785.96875 C 1692.828125 2773.570312 1693.441406 2755.140625 1696.03125 2741.476562 L 1841.941406 1941.371094 L 1882.898438 1644.808594 C 1894.191406 1536.289062 1905.46875 1417.738281 1873.699219 1311.871094 C 1866.378906 1287.460938 1854.460938 1265.058594 1847.300781 1240.628906 Z M 1847.300781 1240.628906 "/>
</clipPath>
<clipPath id="clip-5">
<path clip-rule="nonzero" d="M 1847.300781 1240.628906 C 1846.070312 1231.851562 1842.058594 1223.179688 1842.621094 1214.320312 L 1973.679688 1356.75 C 2031.46875 1415.371094 2048.070312 1426.511719 2126.058594 1452.78125 L 2390.210938 1553.121094 C 2508.089844 1600.441406 2627.378906 1643.5 2738.441406 1706.148438 C 2773.410156 1725.878906 2784.679688 1731.210938 2800.878906 1768.308594 C 2841.589844 1861.621094 2857.878906 1967.070312 2873.480469 2066.953125 L 2906.699219 2322.457031 L 2957.929688 2836.457031 C 2961.199219 2882.625 2963.660156 2930.074219 2971.941406 2975.660156 L 1876.558594 2976.128906 L 1666.589844 2975.710938 L 1306.828125 2975.5 C 1294.078125 2947.972656 1271.539062 2814.398438 1280.378906 2795.96875 C 1288.421875 2774.125 1282.460938 2746.476562 1285.710938 2723.382812 L 1315.058594 2438.683594 L 1373.421875 1994.546875 C 1379.011719 1957.148438 1383.671875 1919.210938 1393.570312 1882.671875 C 1345.410156 1835.578125 1326.300781 1716.261719 1310.238281 1704.058594 L 1317.558594 1691.609375 C 1344.589844 1651.519531 1444.609375 1577.601562 1487.519531 1568.648438 L 1490.519531 1568.160156 L 1496.25 1567.089844 C 1505.339844 1564.730469 1511.648438 1559.960938 1519.441406 1555.148438 L 1554.359375 1533.308594 C 1662.96875 1465.550781 1765.550781 1378.601562 1830.828125 1267.351562 C 1834.320312 1265.078125 1841.261719 1253.230469 1842.980469 1249.359375 Z M 1847.300781 1240.628906 L 1842.980469 1249.359375 C 1841.261719 1253.230469 1834.320312 1265.078125 1830.828125 1267.351562 C 1765.550781 1378.601562 1662.96875 1465.550781 1554.359375 1533.308594 L 1519.441406 1555.148438 C 1511.648438 1559.960938 1505.339844 1564.730469 1496.25 1567.089844 L 1490.519531 1568.160156 C 1497.789062 1569.75 1503.378906 1571.890625 1509.910156 1575.390625 L 1512.03125 1576.5 C 1543.828125 1593.539062 1641.570312 1668.648438 1656.910156 1700.558594 C 1660.910156 1708.871094 1672.019531 1718.558594 1678.511719 1725.230469 L 1728.320312 1775.839844 C 1718.378906 1773.109375 1664.089844 1712.96875 1656.308594 1703.980469 L 1632.140625 1771.910156 C 1621.539062 1803.320312 1613.230469 1846.421875 1590.628906 1871.929688 C 1578.941406 1885.121094 1581.46875 1879.769531 1586.171875 1897.359375 C 1589.539062 1909.941406 1591.980469 1922.558594 1594.210938 1935.371094 L 1622.480469 2128.1875 L 1684.191406 2727.988281 C 1685.050781 2747.308594 1684.238281 2766.730469 1687.039062 2785.96875 C 1692.828125 2773.570312 1693.441406 2755.140625 1696.03125 2741.476562 L 1841.941406 1941.371094 L 1882.898438 1644.808594 C 1894.191406 1536.289062 1905.46875 1417.738281 1873.699219 1311.871094 C 1866.378906 1287.460938 1854.460938 1265.058594 1847.300781 1240.628906 Z M 1847.300781 1240.628906 "/>
</clipPath>
<linearGradient id="linear-pattern-1" gradientUnits="userSpaceOnUse" x1="526.195399" y1="391.907199" x2="200.171299" y2="346.080926" gradientTransform="matrix(5.85938, 0, 0, 5.85938, -13.9993, -12)">
<stop offset="0" stop-color="rgb(5.097961%, 27.058411%, 42.352295%)" stop-opacity="1"/>
<stop offset="0.015625" stop-color="rgb(5.223083%, 27.232361%, 42.530823%)" stop-opacity="1"/>
<stop offset="0.0234375" stop-color="rgb(5.4245%, 27.514648%, 42.819214%)" stop-opacity="1"/>
<stop offset="0.03125" stop-color="rgb(5.577087%, 27.729797%, 43.037415%)" stop-opacity="1"/>
<stop offset="0.0390625" stop-color="rgb(5.729675%, 27.94342%, 43.255615%)" stop-opacity="1"/>
<stop offset="0.046875" stop-color="rgb(5.883789%, 28.158569%, 43.475342%)" stop-opacity="1"/>
<stop offset="0.0546875" stop-color="rgb(6.036377%, 28.372192%, 43.693542%)" stop-opacity="1"/>
<stop offset="0.0625" stop-color="rgb(6.188965%, 28.587341%, 43.911743%)" stop-opacity="1"/>
<stop offset="0.0703125" stop-color="rgb(6.343079%, 28.800964%, 44.13147%)" stop-opacity="1"/>
<stop offset="0.078125" stop-color="rgb(6.495667%, 29.016113%, 44.34967%)" stop-opacity="1"/>
<stop offset="0.0859375" stop-color="rgb(6.648254%, 29.229736%, 44.569397%)" stop-opacity="1"/>
<stop offset="0.09375" stop-color="rgb(6.802368%, 29.444885%, 44.787598%)" stop-opacity="1"/>
<stop offset="0.101562" stop-color="rgb(6.954956%, 29.658508%, 45.005798%)" stop-opacity="1"/>
<stop offset="0.109375" stop-color="rgb(7.10907%, 29.873657%, 45.225525%)" stop-opacity="1"/>
<stop offset="0.117187" stop-color="rgb(7.261658%, 30.08728%, 45.443726%)" stop-opacity="1"/>
<stop offset="0.125" stop-color="rgb(7.414246%, 30.302429%, 45.661926%)" stop-opacity="1"/>
<stop offset="0.127123" stop-color="rgb(7.568359%, 30.517578%, 45.881653%)" stop-opacity="1"/>
<stop offset="0.132812" stop-color="rgb(7.644653%, 30.62439%, 45.991516%)" stop-opacity="1"/>
<stop offset="0.140625" stop-color="rgb(7.720947%, 30.731201%, 46.099854%)" stop-opacity="1"/>
<stop offset="0.148438" stop-color="rgb(7.873535%, 30.94635%, 46.31958%)" stop-opacity="1"/>
<stop offset="0.15625" stop-color="rgb(8.027649%, 31.159973%, 46.537781%)" stop-opacity="1"/>
<stop offset="0.164062" stop-color="rgb(8.180237%, 31.375122%, 46.755981%)" stop-opacity="1"/>
<stop offset="0.171875" stop-color="rgb(8.334351%, 31.588745%, 46.975708%)" stop-opacity="1"/>
<stop offset="0.179688" stop-color="rgb(8.486938%, 31.803894%, 47.193909%)" stop-opacity="1"/>
<stop offset="0.1875" stop-color="rgb(8.639526%, 32.017517%, 47.413635%)" stop-opacity="1"/>
<stop offset="0.195312" stop-color="rgb(8.79364%, 32.232666%, 47.631836%)" stop-opacity="1"/>
<stop offset="0.203125" stop-color="rgb(8.946228%, 32.446289%, 47.850037%)" stop-opacity="1"/>
<stop offset="0.210937" stop-color="rgb(9.098816%, 32.661438%, 48.069763%)" stop-opacity="1"/>
<stop offset="0.21875" stop-color="rgb(9.25293%, 32.875061%, 48.287964%)" stop-opacity="1"/>
<stop offset="0.226562" stop-color="rgb(9.405518%, 33.09021%, 48.506165%)" stop-opacity="1"/>
<stop offset="0.234375" stop-color="rgb(9.558105%, 33.303833%, 48.725891%)" stop-opacity="1"/>
<stop offset="0.242187" stop-color="rgb(9.712219%, 33.518982%, 48.944092%)" stop-opacity="1"/>
<stop offset="0.25" stop-color="rgb(9.864807%, 33.732605%, 49.163818%)" stop-opacity="1"/>
<stop offset="0.257812" stop-color="rgb(10.018921%, 33.947754%, 49.382019%)" stop-opacity="1"/>
<stop offset="0.265625" stop-color="rgb(10.171509%, 34.161377%, 49.60022%)" stop-opacity="1"/>
<stop offset="0.273438" stop-color="rgb(10.324097%, 34.376526%, 49.819946%)" stop-opacity="1"/>
<stop offset="0.28125" stop-color="rgb(10.47821%, 34.590149%, 50.038147%)" stop-opacity="1"/>
<stop offset="0.289062" stop-color="rgb(10.630798%, 34.805298%, 50.257874%)" stop-opacity="1"/>
<stop offset="0.296875" stop-color="rgb(10.783386%, 35.018921%, 50.476074%)" stop-opacity="1"/>
<stop offset="0.304687" stop-color="rgb(10.9375%, 35.23407%, 50.694275%)" stop-opacity="1"/>
<stop offset="0.3125" stop-color="rgb(11.090088%, 35.447693%, 50.914001%)" stop-opacity="1"/>
<stop offset="0.320312" stop-color="rgb(11.242676%, 35.662842%, 51.132202%)" stop-opacity="1"/>
<stop offset="0.328125" stop-color="rgb(11.39679%, 35.876465%, 51.350403%)" stop-opacity="1"/>
<stop offset="0.335937" stop-color="rgb(11.549377%, 36.091614%, 51.570129%)" stop-opacity="1"/>
<stop offset="0.34375" stop-color="rgb(11.703491%, 36.305237%, 51.78833%)" stop-opacity="1"/>
<stop offset="0.351562" stop-color="rgb(11.856079%, 36.520386%, 52.008057%)" stop-opacity="1"/>
<stop offset="0.359375" stop-color="rgb(12.008667%, 36.734009%, 52.226257%)" stop-opacity="1"/>
<stop offset="0.367188" stop-color="rgb(12.162781%, 36.949158%, 52.444458%)" stop-opacity="1"/>
<stop offset="0.375" stop-color="rgb(12.315369%, 37.164307%, 52.664185%)" stop-opacity="1"/>
<stop offset="0.382812" stop-color="rgb(12.467957%, 37.37793%, 52.882385%)" stop-opacity="1"/>
<stop offset="0.390625" stop-color="rgb(12.62207%, 37.593079%, 53.102112%)" stop-opacity="1"/>
<stop offset="0.398438" stop-color="rgb(12.774658%, 37.806702%, 53.320312%)" stop-opacity="1"/>
<stop offset="0.40625" stop-color="rgb(12.928772%, 38.021851%, 53.538513%)" stop-opacity="1"/>
<stop offset="0.414063" stop-color="rgb(13.08136%, 38.235474%, 53.75824%)" stop-opacity="1"/>
<stop offset="0.421875" stop-color="rgb(13.233948%, 38.450623%, 53.97644%)" stop-opacity="1"/>
<stop offset="0.429687" stop-color="rgb(13.388062%, 38.664246%, 54.194641%)" stop-opacity="1"/>
<stop offset="0.4375" stop-color="rgb(13.540649%, 38.879395%, 54.414368%)" stop-opacity="1"/>
<stop offset="0.445312" stop-color="rgb(13.693237%, 39.093018%, 54.632568%)" stop-opacity="1"/>
<stop offset="0.453125" stop-color="rgb(13.847351%, 39.308167%, 54.852295%)" stop-opacity="1"/>
<stop offset="0.460937" stop-color="rgb(13.999939%, 39.52179%, 55.070496%)" stop-opacity="1"/>
<stop offset="0.46875" stop-color="rgb(14.152527%, 39.736938%, 55.288696%)" stop-opacity="1"/>
<stop offset="0.476562" stop-color="rgb(14.306641%, 39.950562%, 55.508423%)" stop-opacity="1"/>
<stop offset="0.484375" stop-color="rgb(14.459229%, 40.16571%, 55.726624%)" stop-opacity="1"/>
<stop offset="0.492188" stop-color="rgb(14.613342%, 40.379333%, 55.94635%)" stop-opacity="1"/>
<stop offset="0.5" stop-color="rgb(14.76593%, 40.594482%, 56.164551%)" stop-opacity="1"/>
<stop offset="0.507812" stop-color="rgb(14.918518%, 40.808105%, 56.382751%)" stop-opacity="1"/>
<stop offset="0.515625" stop-color="rgb(15.072632%, 41.023254%, 56.602478%)" stop-opacity="1"/>
<stop offset="0.523438" stop-color="rgb(15.22522%, 41.236877%, 56.820679%)" stop-opacity="1"/>
<stop offset="0.53125" stop-color="rgb(15.377808%, 41.452026%, 57.038879%)" stop-opacity="1"/>
<stop offset="0.539063" stop-color="rgb(15.531921%, 41.665649%, 57.258606%)" stop-opacity="1"/>
<stop offset="0.546875" stop-color="rgb(15.684509%, 41.880798%, 57.476807%)" stop-opacity="1"/>
<stop offset="0.554688" stop-color="rgb(15.838623%, 42.094421%, 57.696533%)" stop-opacity="1"/>
<stop offset="0.5625" stop-color="rgb(15.991211%, 42.30957%, 57.914734%)" stop-opacity="1"/>
<stop offset="0.570312" stop-color="rgb(16.143799%, 42.523193%, 58.132935%)" stop-opacity="1"/>
<stop offset="0.578125" stop-color="rgb(16.297913%, 42.738342%, 58.352661%)" stop-opacity="1"/>
<stop offset="0.585938" stop-color="rgb(16.4505%, 42.951965%, 58.570862%)" stop-opacity="1"/>
<stop offset="0.59375" stop-color="rgb(16.603088%, 43.167114%, 58.790588%)" stop-opacity="1"/>
<stop offset="0.601562" stop-color="rgb(16.757202%, 43.380737%, 59.008789%)" stop-opacity="1"/>
<stop offset="0.609375" stop-color="rgb(16.90979%, 43.595886%, 59.22699%)" stop-opacity="1"/>
<stop offset="0.617187" stop-color="rgb(17.062378%, 43.809509%, 59.446716%)" stop-opacity="1"/>
<stop offset="0.625" stop-color="rgb(17.216492%, 44.024658%, 59.664917%)" stop-opacity="1"/>
<stop offset="0.632812" stop-color="rgb(17.36908%, 44.239807%, 59.883118%)" stop-opacity="1"/>
<stop offset="0.640625" stop-color="rgb(17.523193%, 44.45343%, 60.102844%)" stop-opacity="1"/>
<stop offset="0.648437" stop-color="rgb(17.675781%, 44.668579%, 60.321045%)" stop-opacity="1"/>
<stop offset="0.65625" stop-color="rgb(17.828369%, 44.882202%, 60.540771%)" stop-opacity="1"/>
<stop offset="0.664062" stop-color="rgb(17.982483%, 45.097351%, 60.758972%)" stop-opacity="1"/>
<stop offset="0.671875" stop-color="rgb(18.135071%, 45.310974%, 60.977173%)" stop-opacity="1"/>
<stop offset="0.679688" stop-color="rgb(18.287659%, 45.526123%, 61.196899%)" stop-opacity="1"/>
<stop offset="0.6875" stop-color="rgb(18.441772%, 45.739746%, 61.4151%)" stop-opacity="1"/>
<stop offset="0.695312" stop-color="rgb(18.59436%, 45.954895%, 61.634827%)" stop-opacity="1"/>
<stop offset="0.703125" stop-color="rgb(18.746948%, 46.166992%, 61.851501%)" stop-opacity="1"/>
<stop offset="0.71875" stop-color="rgb(18.823242%, 46.273804%, 61.959839%)" stop-opacity="1"/>
<stop offset="0.75" stop-color="rgb(18.823242%, 46.273804%, 61.959839%)" stop-opacity="1"/>
<stop offset="0.872877" stop-color="rgb(18.823242%, 46.273804%, 61.959839%)" stop-opacity="1"/>
<stop offset="1" stop-color="rgb(18.823242%, 46.273804%, 61.959839%)" stop-opacity="1"/>
</linearGradient>
</defs>
<path fill-rule="nonzero" fill="rgb(92.576599%, 92.576599%, 92.1875%)" fill-opacity="1" d="M 1002.078125 632.71875 C 985.386719 576.25 971.308594 518.589844 965.90625 459.808594 C 956.324219 355.53125 972.046875 183.671875 1093.980469 148.121094 C 1128.269531 138.128906 1124.210938 135.070312 1151.640625 112.929688 C 1204.578125 70.191406 1259.710938 36.449219 1325.558594 17.660156 L 1372.46875 6.269531 C 1396.851562 -0.160156 1425.039062 0.980469 1450.148438 0.640625 C 1578.730469 -1.128906 1859.03125 32.601562 1890.761719 170.839844 C 1892.988281 180.570312 1891.75 192.628906 1891.621094 202.679688 C 1907.578125 206.808594 1920.871094 212.28125 1934.519531 221.640625 L 1936.730469 223.121094 C 2043.46875 296.25 2004.191406 531.800781 1966.808594 634.28125 C 1979.160156 632.609375 2011.46875 625.078125 2022.46875 632.929688 L 2026.828125 636.480469 C 2071.378906 673.140625 2015.210938 851.730469 1979.339844 895.910156 C 1948.671875 933.679688 1941.070312 897.890625 1913.050781 969.578125 C 1894.351562 1017.429688 1868.019531 1058.089844 1840.78125 1101.441406 C 1832.691406 1114.320312 1817.179688 1134.058594 1814.660156 1149.058594 C 1815.441406 1158.230469 1817.28125 1166.191406 1820 1174.96875 C 1826.488281 1187.75 1832.789062 1203.789062 1842.621094 1214.320312 C 1842.058594 1223.179688 1846.070312 1231.851562 1847.300781 1240.628906 L 1842.980469 1249.359375 C 1841.261719 1253.230469 1834.320312 1265.078125 1830.828125 1267.351562 C 1765.550781 1378.601562 1662.96875 1465.550781 1554.359375 1533.308594 L 1519.441406 1555.148438 C 1511.648438 1559.960938 1505.339844 1564.730469 1496.25 1567.089844 L 1490.519531 1568.160156 L 1487.519531 1568.648438 L 1485.960938 1567.289062 C 1481.238281 1564.511719 1474.929688 1562.621094 1469.890625 1559.929688 L 1427.78125 1535.941406 C 1332.128906 1480.039062 1236.878906 1410.691406 1173.238281 1318.351562 C 1152.21875 1287.839844 1152.429688 1277.121094 1154.128906 1241.320312 L 1156.21875 1185.820312 C 1157.039062 1173.960938 1159.039062 1162.449219 1159.429688 1150.519531 C 1156.179688 1132.421875 1144.488281 1118.898438 1134.308594 1104.210938 L 1109.359375 1066.859375 C 1091.410156 1039.21875 1075.289062 1010.050781 1063.558594 979.179688 C 1052.71875 950.679688 1054.691406 933.320312 1025.578125 919.089844 C 979.160156 896.429688 973.992188 867.171875 956.4375 820.410156 C 939.519531 775.339844 920.886719 726.921875 926.253906 677.941406 L 929.21875 660.230469 C 940.722656 613.410156 986.707031 636.089844 1000.640625 633.238281 Z M 1002.078125 632.71875 "/>
<path fill-rule="nonzero" fill="rgb(78.90625%, 78.514099%, 78.125%)" fill-opacity="1" d="M 1814.660156 1149.058594 C 1815.441406 1158.230469 1817.28125 1166.191406 1820 1174.96875 C 1826.488281 1187.75 1832.789062 1203.789062 1842.621094 1214.320312 C 1842.058594 1223.179688 1846.070312 1231.851562 1847.300781 1240.628906 L 1842.980469 1249.359375 C 1841.261719 1253.230469 1834.320312 1265.078125 1830.828125 1267.351562 C 1765.550781 1378.601562 1662.96875 1465.550781 1554.359375 1533.308594 L 1519.441406 1555.148438 C 1511.648438 1559.960938 1505.339844 1564.730469 1496.25 1567.089844 L 1490.519531 1568.160156 L 1487.519531 1568.648438 L 1485.960938 1567.289062 C 1481.238281 1564.511719 1474.929688 1562.621094 1469.890625 1559.929688 L 1427.78125 1535.941406 C 1332.128906 1480.039062 1236.878906 1410.691406 1173.238281 1318.351562 C 1152.21875 1287.839844 1152.429688 1277.121094 1154.128906 1241.320312 L 1156.21875 1185.820312 C 1157.039062 1173.960938 1159.039062 1162.449219 1159.429688 1150.519531 C 1168.421875 1155.429688 1175.960938 1171.308594 1182.601562 1179.601562 L 1212.050781 1212.929688 C 1366.378906 1374.261719 1591.808594 1392.539062 1749.691406 1224.558594 L 1785.769531 1183.121094 C 1794.589844 1172.179688 1803.179688 1159.949219 1813.351562 1150.289062 Z M 1814.660156 1149.058594 "/>
<path fill-rule="nonzero" fill="rgb(92.576599%, 92.576599%, 92.1875%)" fill-opacity="1" d="M 1820 1174.96875 C 1826.488281 1187.75 1832.789062 1203.789062 1842.621094 1214.320312 C 1842.058594 1223.179688 1846.070312 1231.851562 1847.300781 1240.628906 L 1842.980469 1249.359375 C 1841.261719 1253.230469 1834.320312 1265.078125 1830.828125 1267.351562 L 1826.519531 1261.929688 C 1825.761719 1235.679688 1813.261719 1198.480469 1820 1174.96875 Z M 1820 1174.96875 "/>
<path fill-rule="nonzero" fill="rgb(9.812927%, 34.104919%, 50.584412%)" fill-opacity="1" d="M 1002.078125 632.71875 C 985.386719 576.25 971.308594 518.589844 965.90625 459.808594 C 956.324219 355.53125 972.046875 183.671875 1093.980469 148.121094 C 1128.269531 138.128906 1124.210938 135.070312 1151.640625 112.929688 C 1204.578125 70.191406 1259.710938 36.449219 1325.558594 17.660156 L 1372.46875 6.269531 C 1396.851562 -0.160156 1425.039062 0.980469 1450.148438 0.640625 C 1578.730469 -1.128906 1859.03125 32.601562 1890.761719 170.839844 C 1892.988281 180.570312 1891.75 192.628906 1891.621094 202.679688 C 1907.578125 206.808594 1920.871094 212.28125 1934.519531 221.640625 L 1936.730469 223.121094 C 2043.46875 296.25 2004.191406 531.800781 1966.808594 634.28125 C 1956.441406 661.019531 1946.46875 687.980469 1939.761719 715.890625 C 1931.339844 750.929688 1931.238281 790.070312 1906.699219 818.269531 C 1900.148438 790.429688 1898.210938 761.570312 1891.769531 733.609375 C 1884.269531 700.980469 1871.558594 670.320312 1866.070312 637.089844 C 1853.171875 559.03125 1868.019531 467.441406 1826.699219 396.691406 C 1804.578125 358.820312 1781.71875 358.78125 1742.570312 367.808594 L 1648.019531 391.621094 C 1525.761719 418.929688 1397.089844 420.488281 1276.339844 384.121094 C 1245.050781 374.699219 1215.199219 360.5 1183.699219 352.25 L 1174.710938 358.019531 C 1095.179688 414.789062 1122.148438 539.339844 1109.78125 617.121094 C 1103.609375 655.871094 1090.441406 691.449219 1081.160156 729.289062 C 1074.480469 756.519531 1072.460938 783.820312 1067.789062 811.339844 L 1064.859375 812.769531 C 1046.039062 804.519531 1034.398438 714.660156 1027.480469 693.441406 C 1020.679688 672.601562 1010.28125 653.039062 1002.078125 632.71875 Z M 1002.078125 632.71875 "/>
<g clip-path="url(#clip-0)">
<g clip-path="url(#clip-1)">
<g clip-path="url(#clip-2)">
<path fill-rule="nonzero" fill="url(#linear-pattern-0)" d="M 0.128906 1216.621094 L 0.128906 2976.140625 L 1876.558594 2976.140625 L 1876.558594 1216.621094 Z M 0.128906 1216.621094 "/>
</g>
</g>
</g>
<g clip-path="url(#clip-3)">
<g clip-path="url(#clip-4)">
<g clip-path="url(#clip-5)">
<path fill-rule="nonzero" fill="url(#linear-pattern-1)" d="M 1271.539062 1214.320312 L 1271.539062 2976.128906 L 2971.941406 2976.128906 L 2971.941406 1214.320312 Z M 1271.539062 1214.320312 "/>
</g>
</g>
</g>
<path fill-rule="nonzero" fill="rgb(9.812927%, 34.104919%, 50.584412%)" fill-opacity="1" d="M 1490.519531 1568.160156 C 1497.789062 1569.75 1503.378906 1571.890625 1509.910156 1575.390625 L 1512.03125 1576.5 C 1543.828125 1593.539062 1641.570312 1668.648438 1656.910156 1700.558594 C 1660.910156 1708.871094 1672.019531 1718.558594 1678.511719 1725.230469 L 1728.320312 1775.839844 C 1718.378906 1773.109375 1664.089844 1712.96875 1656.308594 1703.980469 L 1632.140625 1771.910156 C 1621.539062 1803.320312 1613.230469 1846.421875 1590.628906 1871.929688 C 1578.941406 1885.121094 1581.46875 1879.769531 1586.171875 1897.359375 C 1589.539062 1909.941406 1591.980469 1922.558594 1594.210938 1935.371094 L 1622.480469 2128.1875 L 1684.191406 2727.988281 C 1685.050781 2747.308594 1684.238281 2766.730469 1686.339844 2785.96875 C 1690.019531 2817.8125 1686.199219 2847.929688 1682.179688 2879.40625 L 1666.589844 2974.421875 L 1306.828125 2975.5 C 1294.078125 2947.972656 1271.539062 2814.398438 1280.378906 2795.96875 C 1288.421875 2774.125 1282.460938 2746.476562 1285.710938 2723.382812 L 1315.058594 2438.683594 L 1373.421875 1994.546875 C 1379.011719 1957.148438 1383.671875 1919.210938 1393.570312 1882.671875 C 1345.410156 1835.578125 1326.300781 1716.261719 1310.238281 1704.058594 L 1317.558594 1691.609375 C 1344.589844 1651.519531 1444.609375 1577.601562 1487.519531 1568.648438 Z M 1490.519531 1568.160156 "/>
</svg>