<svg fill="#6d31ed" height="200px" width="200px" version="1.1" id="Icons" xmlns="http://www.w3.org/2000/svg" xmlns:xlink="http://www.w3.org/1999/xlink" viewBox="0 0 32 32" xml:space="preserve"><g id="SVGRepo_bgCarrier" stroke-width="0"></g><g id="SVGRepo_tracerCarrier" stroke-linecap="round" stroke-linejoin="round"></g><g id="SVGRepo_iconCarrier"> <path d="M16,2C8.3,2,2,8.3,2,16s6.3,14,14,14s14-6.3,14-14S23.7,2,16,2z M21.7,11.7l-5,5C16.5,16.9,16.3,17,16,17 c-0.1,0-0.3,0-0.4-0.1C15.2,16.8,15,16.4,15,16V7c0-0.6,0.4-1,1-1s1,0.4,1,1v6.6l3.3-3.3c0.4-0.4,1-0.4,1.4,0S22.1,11.3,21.7,11.7z"></path> </g></svg>